# xmcd
#
# Track frame offsets:
#        187
#        16314
#        33569
#        51544
#        68072
#        88034
#        106584
#        124424
#        142434
#        158242
#
# Disc length: 2444 seconds
#
# Revision: 0
# Processed by: cddbd v1.5.1PL0 Copyright (c) Steve Scherf et al.
# Submitted via: ExactAudioCopy v0.95a5
#
DISCID=8f098a0a
DTITLE=Average White Band - Average White Band
DYEAR=1974
DGENRE=R&B
TTITLE0=You Got It
TTITLE1=Got The Love
TTITLE2=Pick Up The Pieces
TTITLE3=Person To Person
TTITLE4=Work To Do
TTITLE5=Nothing You Can Do
TTITLE6=Just Wanna Love You Tonight
TTITLE7=Keepin' It To Myself
TTITLE8=I Just Can't Give You Up
TTITLE9=There's Always Someone Waiting
EXTD=
EXTT0=
EXTT1=
EXTT2=
EXTT3=
EXTT4=
EXTT5=
EXTT6=
EXTT7=
EXTT8=
EXTT9=
PLAYORDER=
